<svg xmlns="http://www.w3.org/2000/svg" width="394.6" height="178.2" viewBox="1.5 1.6 394.6 178.2"><rect width="264.5" height="79" x="131.5" y="72.5" rx="30" ry="30" style="stroke:#000;fill:#141c1c"/><path fill-rule="evenodd" d="M335.8 112.3v23.6h8.1V88.6h-8.1v23.6M188 90.4l8.6 23 8.2 22.2 5.4.2 5.5.1 8.1-22.3 8.6-23.2c.3-.7 0-.8-4.2-.8-4 0-4.7.1-5.1.8L210.5 125c-.2.7-.2.7-.5 0l-5.5-15.3-6.2-17.3-1-2.7h-4.8c-4.4 0-4.8 0-4.5.8m50.9 11.3c0 6.6-.1 17-.3 23.1l-.3 11h9.7l-.3-16a284 284 0 0 1-.1-16l6.9 14.6 6.5 14.2 3-.2 2.8-.1 6.3-13.6a282 282 0 0 0 6.8-14.8c.1 0 .2 7.2.1 16v16h9v-8l-.3-23.1-.3-15.2-5.7.1-5.7.2-6.6 15.2-6.6 15.3-1-2.1-12-27.3-.6-1.4H239v12M153.5 113v22.9h30v-8.1h-21l.1-5.3.2-5.2h17.4v-8.1h-8.7l-8.7.2-.2-5.8v-5.9h20V94l.2-3.8h-29.3v23m156-12c-1.6.3-4 .9-5.2 1.5a16.7 16.7 0 0 0-7.7 8.4 17 17 0 0 0-1.1 8c0 5 0 5.4 1.5 8.4 1 2 2.4 4 4 5.4 3.6 3 8.3 4.5 13 4a20 20 0 0 0 6.4-1.4c3.4-1.6 6.1-4.3 7.8-7.7a22.4 22.4 0 0 0-.4-17.8c-.9-1.8-2.1-3.4-3.6-4.7a15 15 0 0 0-4.8-3 26 26 0 0 0-4.7-1.2c-1.1-.1-3.4 0-5.1.2m51.5 0a20 20 0 0 0-4 1.7c-1.2.9-2.3 1.8-3.3 2.9-1 1.4-2 2.8-2.7 4.3-1.2 2.4-1.3 3.2-1.3 8.9 0 5.8.1 6.3 1.4 8.8.7 1.4 2 3.4 2.8 4.3.9.8 2.6 2 3.9 2.7 3.3 1.5 7 2.1 10.7 1.8a18 18 0 0 0 8.3-3.3c2-1.6 3.6-3.7 4.7-6-1.1-.6-2.3-1-3.5-1.4l-3.5-1-2 2a8.8 8.8 0 0 1-11 1.4 8.8 8.8 0 0 1-3.4-5.7c0-1 .2-1 11.8-1h11.7l-.2-4.4a17 17 0 0 0-1.6-7.4 16.2 16.2 0 0 0-7.6-7.8 20 20 0 0 0-11.2-.7m-50.6 7.4c-1 .2-2 .7-2.9 1.3a10.8 10.8 0 0 0-3.6 8.9c0 3.2.2 4.1 1.2 6a9 9 0 0 0 3.1 3.1c1.3.8 2.8 1.2 4.3 1.1 1.4 0 3-.3 4-1a10 10 0 0 0 2.8-2.4 14 14 0 0 0 1.6-4.1c.5-2 .5-3.3 0-5.3-.3-1.4-1-3.3-1.7-4.3a8 8 0 0 0-2.7-2.5c-1-.5-2-.8-3-1-1 0-2.1 0-3.1.2m51.1.4c-1 .8-1.9 1.8-2.5 3-.4 1.1-1 2.3-1 2.6 0 .5 1.9.6 7.2.6h7.2v-1.2c0-.8-.5-2-1-2.9-.5-1-1.6-2-2.3-2.3-.8-.4-2.4-.8-3.7-.8-1.4 0-2.9.4-3.8 1" style="fill:#f9f9f9"/><path fill-rule="evenodd" d="M107.2 25.8a6.1 6.1 0 0 0 .3 11.3c4.8 2 9.6-3.3 7.3-8-1.6-3.1-4.7-4.5-7.6-3.3" style="stroke-width:1;fill:#f9f9f9"/><path fill="#141c1c" fill-rule="evenodd" d="M85.7 1.8a42 42 0 0 0-24.4 10.5c-7.5 7-12.7 14.6-21.8 32.3C34.3 55.6 28 66 21 75.8c-14.5 21-19.4 35.6-19.4 57.6 0 9.6.5 12.3 2.5 13.5 2.1 1.3 3.2 1.4 22.1 2 23.7.5 34 1.8 45.6 5.6a58.2 58.2 0 0 1 29.5 20.5c1.9 2.4 3.8 4.6 4.3 4.7 1.1.5 2-1.2 2-4a43.3 43.3 0 0 0-8.8-21.6 79 79 0 0 1 18.9 16.7c3.1 3.9 4.7 5.3 5.5 4.6.6-.6.7-5.1.2-7.5a55.4 55.4 0 0 0-7-14.6l-2.1-3 1.5.7c7 4 13 9.4 17.8 15.8 2.9 3.5 3.8 4.3 4.8 3.5 3.8-3.2-2.5-18.1-12-28.6-5.2-5.9-4.7-3-4.7-31.3 0-27.5.1-29 3-35 2-3.9 5.5-7 14.4-12.8 20.5-13.4 28.4-20.6 33.3-30.1A12 12 0 0 0 174 25c0-3.7 0-3.8-1.6-5.2-1.2-1.1-2-1.4-3.8-1.4-1.3 0-3.4.3-4.6.8-2.2.6-4.4.8-6.7.5-6.7-.3-14.6-2.7-33.4-9.9-7.2-3-14.5-5.4-22-7.3-5.4-1-10.9-1.2-16.3-.8M107.2 26a6.1 6.1 0 0 0 .3 11.2c4.8 2 9.6-3.3 7.3-8-1.6-3.1-4.7-4.5-7.6-3.3" style="stroke-width:1"/></svg>